<svg xmlns="http://www.w3.org/2000/svg" xmlns:xlink="http://www.w3.org/1999/xlink" viewBox="0 0 464.56 482.45"><defs><style>.cls-1{isolation:isolate;}.cls-2{opacity:0.5;mix-blend-mode:multiply;fill:url(#radial-gradient);}.cls-3,.cls-7{fill:#6d6d6d;}.cls-4{fill:url(#linear-gradient);}.cls-5{fill:url(#linear-gradient-2);}.cls-6{fill:url(#linear-gradient-3);}.cls-7{opacity:0.4;}.cls-8{fill:url(#linear-gradient-4);}.cls-9{fill:#203647;}.cls-10{fill:#4da8da;}.cls-11{fill:url(#linear-gradient-5);}.cls-12{fill:url(#linear-gradient-6);}.cls-13{opacity:0.3;fill:url(#linear-gradient-7);}.cls-14{fill:#191514;}.cls-15{fill:url(#linear-gradient-8);}.cls-16{fill:url(#linear-gradient-9);}.cls-17{fill:url(#linear-gradient-10);}.cls-18{fill:url(#linear-gradient-11);}.cls-19{fill:url(#linear-gradient-12);}.cls-20{fill:url(#linear-gradient-13);}.cls-21{fill:url(#linear-gradient-14);}.cls-22{fill:url(#linear-gradient-15);}.cls-23,.cls-33{fill:#141615;}.cls-23{opacity:0.2;}.cls-24{fill:url(#linear-gradient-16);}.cls-25,.cls-27,.cls-29,.cls-31{opacity:0.7;}.cls-25{fill:url(#linear-gradient-17);}.cls-26{fill:url(#linear-gradient-18);}.cls-27{fill:url(#linear-gradient-19);}.cls-28{fill:url(#linear-gradient-20);}.cls-29{fill:url(#linear-gradient-21);}.cls-30{fill:url(#linear-gradient-22);}.cls-31{fill:url(#linear-gradient-23);}.cls-32{fill:url(#linear-gradient-24);}</style><radialGradient id="radial-gradient" cx="-17770.95" cy="-32378.58" r="1598.55" gradientTransform="translate(2991 864.43) scale(0.15 0.01)" gradientUnits="userSpaceOnUse"><stop offset="0" stop-color="#666"/><stop offset="0.16" stop-color="#707070" stop-opacity="0.93"/><stop offset="0.4" stop-color="#8a8a8a" stop-opacity="0.74"/><stop offset="0.69" stop-color="#b6b6b6" stop-opacity="0.43"/><stop offset="1" stop-color="#f2f2f2" stop-opacity="0"/></radialGradient><linearGradient id="linear-gradient" x1="185.87" y1="162.39" x2="198.73" y2="162.39" gradientTransform="translate(17.02 -10.99)" gradientUnits="userSpaceOnUse"><stop offset="0" stop-color="#d7d7d7"/><stop offset="1" stop-color="#969696"/></linearGradient><linearGradient id="linear-gradient-2" x1="344.21" y1="183.87" x2="357.06" y2="183.87" gradientTransform="translate(563.2 -218.7) rotate(90)" xlink:href="#linear-gradient"/><linearGradient id="linear-gradient-3" x1="96.43" y1="476.84" x2="96.43" y2="424.36" gradientUnits="userSpaceOnUse"><stop offset="0" stop-color="#2e302f"/><stop offset="1" stop-color="#1c1e1d"/></linearGradient><linearGradient id="linear-gradient-4" x1="159.48" y1="594.15" x2="159.48" y2="541.67" gradientTransform="matrix(-1, 0, 0, 1, 527.61, -117.31)" xlink:href="#linear-gradient-3"/><linearGradient id="linear-gradient-5" x1="232.28" y1="107.34" x2="232.28" y2="424.26" gradientUnits="userSpaceOnUse"><stop offset="0" stop-color="#fbfbfb"/><stop offset="1" stop-color="#969696"/></linearGradient><linearGradient id="linear-gradient-6" x1="232.28" y1="425.34" x2="232.28" y2="126.01" gradientUnits="userSpaceOnUse"><stop offset="0" stop-color="#4d4f4e"/><stop offset="1" stop-color="#969696"/></linearGradient><linearGradient id="linear-gradient-7" x1="400" y1="542.66" x2="400" y2="243.32" xlink:href="#linear-gradient-5"/><linearGradient id="linear-gradient-8" x1="394" y1="282.88" x2="394" y2="286.95" xlink:href="#linear-gradient-3"/><linearGradient id="linear-gradient-9" x1="394" y1="298.9" x2="394" y2="302.97" xlink:href="#linear-gradient-3"/><linearGradient id="linear-gradient-10" x1="394" y1="306.91" x2="394" y2="310.99" xlink:href="#linear-gradient-3"/><linearGradient id="linear-gradient-11" x1="394" y1="322.93" x2="394" y2="327.01" xlink:href="#linear-gradient-3"/><linearGradient id="linear-gradient-12" x1="394" y1="338.95" x2="394" y2="343.03" xlink:href="#linear-gradient-3"/><linearGradient id="linear-gradient-13" x1="394" y1="354.98" x2="394" y2="359.05" xlink:href="#linear-gradient-3"/><linearGradient id="linear-gradient-14" x1="394" y1="373.42" x2="394" y2="379.53" xlink:href="#linear-gradient-3"/><linearGradient id="linear-gradient-15" x1="526.93" y1="387.15" x2="593.17" y2="387.15" xlink:href="#linear-gradient-3"/><linearGradient id="linear-gradient-16" x1="501.67" y1="370.26" x2="548.11" y2="370.26" gradientTransform="translate(-66.1 163.6) rotate(-22.87)" xlink:href="#linear-gradient-3"/><linearGradient id="linear-gradient-17" x1="504.37" y1="345.64" x2="546.88" y2="396.65" gradientTransform="translate(-66.1 163.6) rotate(-22.87)" xlink:href="#linear-gradient"/><linearGradient id="linear-gradient-18" x1="525.71" y1="347.04" x2="525.71" y2="394.03" gradientTransform="translate(36.08 -69.72)" xlink:href="#linear-gradient-5"/><linearGradient id="linear-gradient-19" x1="501.69" y1="371.15" x2="522.05" y2="371.15" gradientTransform="translate(-66.1 163.6) rotate(-22.87)" gradientUnits="userSpaceOnUse"><stop offset="0" stop-color="#2e302f" stop-opacity="0"/><stop offset="1" stop-color="#1c1e1d"/></linearGradient><linearGradient id="linear-gradient-20" x1="383.39" y1="480.13" x2="432.42" y2="480.13" gradientTransform="translate(-63.8 419.59) rotate(-55.49)" xlink:href="#linear-gradient-3"/><linearGradient id="linear-gradient-21" x1="386.24" y1="454.13" x2="431.13" y2="508" gradientTransform="translate(-63.8 419.59) rotate(-55.49)" xlink:href="#linear-gradient"/><linearGradient id="linear-gradient-22" x1="408.77" y1="455.61" x2="408.77" y2="505.24" gradientTransform="translate(153.79 -124.85)" xlink:href="#linear-gradient-5"/><linearGradient id="linear-gradient-23" x1="383.41" y1="481.08" x2="404.9" y2="481.08" gradientTransform="translate(-63.8 419.59) rotate(-55.49)" xlink:href="#linear-gradient-19"/><linearGradient id="linear-gradient-24" x1="352.71" y1="260.12" x2="352.71" y2="514.05" gradientUnits="userSpaceOnUse"><stop offset="0" stop-color="#141615"/><stop offset="0.43" stop-color="#282928"/><stop offset="1" stop-color="#484948"/></linearGradient></defs><g class="cls-1"><g id="object"><path class="cls-2" d="M632.28,586c0-7.62-104-13.79-232.27-13.79S167.72,578.35,167.72,586s104,13.8,232.29,13.8S632.28,593.59,632.28,586Z" transform="translate(-167.72 -117.31)"/><polygon class="cls-3" points="103.87 121.91 93.47 127.53 35.27 25.81 36.51 23.09 103.87 121.91"/><polygon class="cls-3" points="128.31 144.12 138.71 149.74 209.26 25.56 204.66 22.84 128.31 144.12"/><rect class="cls-4" x="202.9" y="138.25" width="12.85" height="26.29" transform="translate(-216.5 23.14) rotate(-33.45)"/><rect class="cls-5" x="366.16" y="125.5" width="26.29" height="12.85" transform="translate(-87.09 283.07) rotate(-61.13)"/><polygon class="cls-6" points="98.58 467.38 82.67 467.38 87.83 423.53 110.18 423.53 98.58 467.38"/><polygon class="cls-7" points="98.58 467.38 92.99 467.38 100.73 423.53 110.18 423.53 98.58 467.38"/><polygon class="cls-8" points="365.98 467.38 381.89 467.38 376.73 423.53 354.37 423.53 365.98 467.38"/><polygon class="cls-7" points="365.98 467.38 371.57 467.38 363.83 423.53 354.37 423.53 365.98 467.38"/><path class="cls-9" d="M583.14,537a12.89,12.89,0,0,1-12.9,12.9H229.75A12.89,12.89,0,0,1,216.86,537h0a12.89,12.89,0,0,1,12.89-12.89H570.24A12.89,12.89,0,0,1,583.14,537Z" transform="translate(-167.72 -117.31)"/><path class="cls-10" d="M34.52,114.85H430a25.79,25.79,0,0,1,25.79,25.79V397.73A25.79,25.79,0,0,1,430,423.53H34.52a25.8,25.8,0,0,1-25.8-25.8V140.65A25.79,25.79,0,0,1,34.52,114.85Z"/><rect class="cls-11" x="16.68" y="121.52" width="431.19" height="295.33" rx="21.52"/><rect class="cls-12" x="21.2" y="126.04" width="422.16" height="286.3" rx="17"/><path class="cls-13" d="M492.65,290.39c-63.89,9.68-128.41,14.61-193,16-31.59.7-63.27,1.17-94.87,1.17q-7.93,0-15.87-.23V435.83q8.19,0,16.39-.33c29.89-1,59.67-3.95,89.37-7.32,57.63-6.55,115.24-13.94,171.92-26.5,49.89-11.05,98.51-26,144.48-47.95v-89.2A956.18,956.18,0,0,1,492.65,290.39Z" transform="translate(-167.72 -117.31)"/><rect class="cls-14" x="370.56" y="274.86" width="46.86" height="4.08"/><rect class="cls-15" x="370.56" y="282.88" width="46.86" height="4.08"/><rect class="cls-14" x="370.56" y="290.89" width="46.86" height="4.08"/><rect class="cls-16" x="370.56" y="298.9" width="46.86" height="4.07"/><rect class="cls-17" x="370.56" y="306.91" width="46.86" height="4.08"/><rect class="cls-14" x="370.56" y="314.92" width="46.86" height="4.08"/><rect class="cls-18" x="370.56" y="322.93" width="46.86" height="4.08"/><rect class="cls-14" x="370.56" y="330.94" width="46.86" height="4.08"/><rect class="cls-19" x="370.56" y="338.95" width="46.86" height="4.08"/><rect class="cls-14" x="370.56" y="346.96" width="46.86" height="4.08"/><rect class="cls-20" x="370.56" y="354.98" width="46.86" height="4.08"/><rect class="cls-14" x="370.56" y="362.99" width="46.86" height="4.08"/><rect class="cls-21" x="370.56" y="373.42" width="46.86" height="6.12"/><path class="cls-22" d="M585,506.87h-50a8.12,8.12,0,0,1-8.14-8.08V275.51a8.12,8.12,0,0,1,8.14-8.08h50a8.12,8.12,0,0,1,8.14,8.08V498.79A8.12,8.12,0,0,1,585,506.87Zm-50-238.14a6.81,6.81,0,0,0-6.82,6.78V498.79a6.81,6.81,0,0,0,6.82,6.77h50a6.81,6.81,0,0,0,6.82-6.77V275.51a6.81,6.81,0,0,0-6.82-6.78Z" transform="translate(-167.72 -117.31)"/><path class="cls-23" d="M581.41,295.13A23.21,23.21,0,1,1,551,282.76,23.21,23.21,0,0,1,581.41,295.13Z" transform="translate(-167.72 -117.31)"/><path class="cls-24" d="M582.8,291.76a23.21,23.21,0,1,1-30.41-12.37A23.21,23.21,0,0,1,582.8,291.76Z" transform="translate(-167.72 -117.31)"/><path class="cls-3" d="M579.79,293a19.94,19.94,0,1,1-26.13-10.63A19.95,19.95,0,0,1,579.79,293Z" transform="translate(-167.72 -117.31)"/><path class="cls-25" d="M577.38,294.05a17.33,17.33,0,1,1-22.7-9.24A17.34,17.34,0,0,1,577.38,294.05Z" transform="translate(-167.72 -117.31)"/><path class="cls-10" d="M573.77,295.57a13.41,13.41,0,1,1-17.57-7.14A13.4,13.4,0,0,1,573.77,295.57Z" transform="translate(-167.72 -117.31)"/><rect class="cls-26" x="558.11" y="280.92" width="7.36" height="37.28" transform="translate(-239.98 124.55) rotate(-22.87)"/><path class="cls-27" d="M551.15,283.82l-10.83,26.64A23.19,23.19,0,0,0,561.44,324l3.46-7.63Z" transform="translate(-167.72 -117.31)"/><path class="cls-23" d="M572.37,339.11a24.52,24.52,0,1,1-34.09,6.31A24.52,24.52,0,0,1,572.37,339.11Z" transform="translate(-167.72 -117.31)"/><path class="cls-28" d="M576.85,335.32a24.52,24.52,0,1,1-34.1,6.31A24.52,24.52,0,0,1,576.85,335.32Z" transform="translate(-167.72 -117.31)"/><path class="cls-3" d="M574.89,338.16a21.07,21.07,0,1,1-29.29,5.42A21.06,21.06,0,0,1,574.89,338.16Z" transform="translate(-167.72 -117.31)"/><path class="cls-29" d="M573.32,340.44a18.3,18.3,0,1,1-25.45,4.71A18.31,18.31,0,0,1,573.32,340.44Z" transform="translate(-167.72 -117.31)"/><path class="cls-9" d="M571,343.85a14.16,14.16,0,1,1-19.69,3.65A14.16,14.16,0,0,1,571,343.85Z" transform="translate(-167.72 -117.31)"/><rect class="cls-30" x="558.71" y="334.54" width="7.77" height="39.37" transform="matrix(0.57, -0.82, 0.82, 0.57, -215.79, 499.74)"/><path class="cls-31" d="M544.17,346.27l5.53,29.87a24.52,24.52,0,0,0,26.5,0l-1.27-8.76Z" transform="translate(-167.72 -117.31)"/><path class="cls-32" d="M504.9,483.2c0,15.46-12.17,28-27.19,28h-250c-15,0-27.18-12.53-27.18-28V287.25c0-15.46,12.17-28,27.18-28h250c15,0,27.19,12.53,27.19,28Z" transform="translate(-167.72 -117.31)"/></g><g id="screen"><path class="cls-33" d="M498.88,478.93c0,14.85-11.69,26.89-26.11,26.89H232.64c-14.42,0-26.1-12-26.1-26.89V290.74c0-14.85,11.68-26.89,26.1-26.89H472.77c14.42,0,26.11,12,26.11,26.89Z" transform="translate(-167.72 -117.31)"/></g></g></svg>